<svg width="56" height="56" viewBox="0 0 56 56" fill="none" xmlns="http://www.w3.org/2000/svg">
<rect x="1" y="1" width="54" height="54" rx="7" fill="black" fill-opacity="0.5"/>
<rect x="1" y="1" width="54" height="54" rx="7" stroke="white" stroke-width="2"/>
<path d="M10 15C10 10.5817 13.5817 7 18 7H38C42.4183 7 46 10.5817 46 15V39H10V15Z" fill="white"/>
<path d="M10 50V39H28L10 50Z" fill="white"/>
<path d="M46 50V39H28L46 50Z" fill="white"/>
<path d="M27.1802 15.1739C27.5782 14.604 28.4218 14.604 28.8198 15.1739L31.2581 18.665C31.3936 18.859 31.5934 18.9987 31.8222 19.0592L35.9915 20.1624C36.6991 20.3496 36.9724 21.2085 36.5032 21.7702L33.8602 24.9341C33.7 25.1257 33.6174 25.3704 33.6286 25.6199L33.8115 29.703C33.8432 30.4117 33.1475 30.9271 32.4788 30.6904L28.3337 29.2231C28.1178 29.1467 27.8822 29.1467 27.6663 29.2231L23.5212 30.6904C22.8525 30.9271 22.1568 30.4116 22.1885 29.703L22.3714 25.6199C22.3826 25.3704 22.3 25.1257 22.1398 24.9341L19.4968 21.7702C19.0276 21.2085 19.3009 20.3496 20.0085 20.1624L24.1778 19.0592C24.4066 18.9987 24.6064 18.859 24.7419 18.665L27.1802 15.1739Z" fill="black" fill-opacity="0.5"/>
</svg>
