<svg width="35" height="43" viewBox="0 0 35 43" fill="none" xmlns="http://www.w3.org/2000/svg">
<path d="M0 8C0 3.58172 3.58172 0 8 0H27C31.4183 0 35 3.58172 35 8V32H0V8Z" fill="white"/>
<path d="M0 43V32H17.5L0 43Z" fill="white"/>
<path d="M35 43V32H17.5L35 43Z" fill="white"/>
<path d="M16.6667 8.25589C17.0623 7.65971 17.9377 7.65971 18.3333 8.25589L20.5885 11.655C20.7214 11.8552 20.922 12.001 21.1535 12.0654L25.0831 13.1599C25.7724 13.3519 26.0429 14.1845 25.5981 14.7449L23.0623 17.9402C22.9129 18.1284 22.8363 18.3642 22.8465 18.6043L23.0199 22.6798C23.0503 23.3947 22.3421 23.9092 21.6716 23.6594L17.8492 22.2351C17.624 22.1512 17.376 22.1512 17.1508 22.2351L13.3284 23.6594C12.6579 23.9092 11.9497 23.3947 11.9801 22.6798L12.1535 18.6043C12.1637 18.3642 12.0871 18.1284 11.9377 17.9402L9.40189 14.7449C8.95713 14.1845 9.22764 13.3519 9.91688 13.1599L13.8465 12.0654C14.078 12.001 14.2786 11.8552 14.4115 11.655L16.6667 8.25589Z" fill="#2660A9"/>
</svg>
